<svg width="181" height="281" viewBox="0 0 181 281" fill="none" xmlns="http://www.w3.org/2000/svg">
<g clip-path="url(#clip0)">
<path d="M40.0708 4.36347H8.29279V35.3573L30.8089 45.8825L32.0332 46.4643V47.7866V124.425V125.8L30.7557 126.355L8.26617 136.193V167.822H42.3065L50.424 147.432L50.9563 146.11H52.3935H127.554H128.938L129.497 147.379L138.546 167.822L170.803 167.848V136.193L152.598 125.985L151.507 125.377V124.161V47.9717V46.7552L152.572 46.147L170.829 35.6218L170.883 4.17835H139.051L129.23 24.2768L128.645 25.4668H127.314L52.3669 25.4139H51.0894L50.5038 24.3032L40.0708 4.36347ZM6.19022 0.158672H41.375H42.6525L43.238 1.29582L53.671 21.2355L126.01 21.3149L135.831 1.21648L136.416 0H137.747H172.985H175.088V2.11562L175.034 36.8647V38.0812L173.996 38.6894L155.765 49.2146V122.997L173.97 133.205L175.061 133.813V135.03V169.937V172.026H172.932L137.188 172H135.804L135.245 170.757L126.196 150.315H53.8573L45.7398 170.704L45.2075 172.026H43.7703H6.19022H4.06104V169.911V134.792V133.416L5.33854 132.861L27.828 123.023V49.0824L5.31193 38.5572L4.06104 38.0018V36.6796V2.24785V0.132226H6.19022V0.158672Z" fill="white"/>
<path fill-rule="evenodd" clip-rule="evenodd" d="M94.3939 126.17C94.3939 124.61 96.0706 121.172 96.9755 121.172C97.6409 121.172 97.8804 121.701 98.1199 122.124C97.4546 123.394 96.0174 124.98 96.0174 126.779V130.322H99.9031V121.49H102.165V130.322H105.891V126.779C105.891 124.954 104.454 123.394 103.789 122.124C104.028 121.701 104.241 121.172 104.933 121.172C105.838 121.172 107.515 124.584 107.515 126.17V130.349H139.559V89.0148H112.838V94.4889H59.9277V130.349H94.3939V126.17V126.17ZM118.507 91.8973H121.089V94.4625H118.507V91.8973ZM128.221 91.8973H130.803V94.4625H128.221V91.8973ZM70.6003 102.211H72.5431V104.3H70.6003V102.211ZM83.6947 102.211H85.6376V104.3H83.6947V102.211ZM98.7587 102.211H100.702V104.3H98.7587V102.211ZM77.0677 109.272H79.0105V111.361H77.0677V109.272ZM83.5351 109.272H85.4779V111.361H83.5351V109.272ZM70.6003 109.431H72.5431V111.52H70.6003V109.431ZM123.51 108.32H125.773V111.546H123.51V108.32ZM115.1 112.974H116.245V115.698H115.1V112.974ZM93.8882 109.272H107.648V119.876C107.648 120.538 107.382 120.749 107.009 121.014L106.397 119.612L104.561 119.559L104.082 121.066L103.842 121.014L103.31 119.586L101.314 119.533L100.915 121.014L100.675 121.066L100.063 119.612L98.0933 119.559L97.6941 121.04L97.4546 121.093L96.8424 119.638L95.0326 119.586L94.5536 121.093L94.3939 121.014C94.1544 120.67 93.9148 120.485 93.9148 119.876V109.272H93.8882ZM70.9196 120.22H72.5431V121.833H70.9196V120.22ZM77.387 120.22H79.0105V121.833H77.387V120.22ZM83.5351 120.22H85.1585V121.833H83.5351V120.22Z" fill="white"/>
<path fill-rule="evenodd" clip-rule="evenodd" d="M49.0687 45.5916C47.9242 46.3585 47.0193 49.6641 45.9814 50.7484C45.3958 51.3302 44.9434 52.4673 44.5974 53.3929C44.3579 54.0276 43.2933 55.7465 42.8941 55.9052V56.8573C42.4416 57.0159 40.9512 59.3696 40.9512 59.9249V60.5596H41.9093V65.3726C41.9093 65.8751 43.24 67.832 43.6925 67.9378V130.322H58.5702V68.2816C58.5702 67.356 59.9541 66.3511 60.1671 65.3726C60.3267 64.6057 60.1937 61.8819 60.1937 60.9034C60.4864 60.7183 60.4864 60.586 60.8324 60.586H60.9921C61.551 60.586 61.6309 60.6918 62.243 60.6654L61.6043 59.8456L61.4712 59.9513C61.4712 59.0258 58.8363 54.0012 58.2242 53.8425C58.2242 52.8376 55.8555 48.3948 55.1369 48.2096C55.3232 47.813 53.3271 43.8726 52.7149 43.714L52.6883 42.8148L52.1826 42.3917L51.5971 40.8314C51.0648 41.0165 51.0116 41.3339 50.7986 41.7835C50.4527 42.4975 50.293 42.4975 50.0268 42.947C49.6808 43.6082 49.0687 44.6924 49.0687 45.5916ZM57.6386 67.4618H56.8402V65.8486H55.057V67.4618H53.4335V65.8486H51.6503V67.4618H50.1865V65.8486H48.4299V67.4618H46.9661V65.8486H45.1829V67.4618H43.5594C43.3731 66.6949 42.6013 65.8751 42.6013 65.5313V60.7183H44.0651V63.7859H46.008V60.7183H47.3121V63.733L48.7759 63.7595V60.6918H50.08V63.4157C50.08 63.7859 50.1865 63.8917 50.5591 63.8917H51.5172V60.824H52.8214V63.8917H53.4601V63.5744C53.7795 63.733 53.9392 63.8917 54.4183 63.8917H55.057V60.824H56.3611V63.8917H58.304V60.824H59.6081V65.1611C59.5815 65.6371 58.304 67.4618 57.6386 67.4618ZM50.0534 75.3425H51.6769V79.5208H50.0534V75.3425ZM50.2131 97.3714H51.8366V101.55H50.2131V97.3714Z" fill="white"/>
<path fill-rule="evenodd" clip-rule="evenodd" d="M112.678 84.8366H139.692V68.9165H112.678V84.8366ZM118.667 69.3925H122.393V73.2535H118.667V69.3925ZM129.02 69.3925H132.746V73.2535H129.02V69.3925ZM119.465 77.4319H121.727V80.1557H119.465V77.4319ZM129.02 77.4319H131.282V80.1557H129.02V77.4319Z" fill="white"/>
<path fill-rule="evenodd" clip-rule="evenodd" d="M114.381 59.4226C113.556 59.5019 109.112 63.8918 109.032 64.7381H140.277C139.719 63.8918 134.422 58.5234 133.757 58.3912L132.666 57.0161V56.2227C132.213 56.064 124.921 43.3703 124.894 42.3918C123.83 42.4712 122.818 45.5653 122.259 46.5173C121.408 47.9982 120.503 49.2941 119.598 50.8014C119.199 51.489 118.853 52.5468 118.507 53.0757C117.735 54.2922 117.894 53.4724 117.176 55.2971C117.043 55.6409 116.165 56.6987 115.792 57.307C115.339 58.1003 114.435 58.735 114.381 59.4226Z" fill="white"/>
<path fill-rule="evenodd" clip-rule="evenodd" d="M89.8425 87.719H86.9415V89.9669C86.143 90.0197 86.3559 90.2842 85.6373 90.2842H81.7516C81.1927 90.2842 80.2878 89.8611 80.2878 89.3322V87.719H77.5465V89.0148C77.5465 89.5173 77.2537 90.3106 76.748 90.3106H73.0219C72.2501 90.3106 71.2388 89.7817 71.2388 89.1735V87.719H68.4974V88.5124C68.4974 89.676 68.0716 89.4908 67.8587 90.1255H65.5964L63.0148 89.9404L62.2696 89.4115L62.2163 87.719H60.1138V92.8758H92.7967V90.3106H90.3748C90.2949 89.4115 89.8957 89.7817 89.8957 88.8561V87.719H89.8425Z" fill="white"/>
<path fill-rule="evenodd" clip-rule="evenodd" d="M95.0327 85.6298H109.751C109.91 84.9422 110.23 84.6777 111.055 84.6777V80.3407H95.0327V85.6298V85.6298ZM96.6562 81.1341H97.6144V84.0166H96.6562V81.1341ZM100.223 81.1341H101.181V84.0166H100.223V81.1341ZM103.443 81.1341H104.401V84.0166H103.443V81.1341Z" fill="white"/>
<path fill-rule="evenodd" clip-rule="evenodd" d="M95.0327 92.8759H111.055V89.0149H110.256C109.99 88.3008 109.777 88.8826 109.777 88.2215V87.7455H95.0593V92.8759H95.0327ZM96.4965 88.5388H97.4547V91.4214H96.4965V88.5388ZM100.063 88.5388H101.021V91.4214H100.063V88.5388ZM103.283 88.5388H104.241V91.4214H103.283V88.5388Z" fill="white"/>
<path d="M111.055 74.3905H93.8882V78.2515H111.055V74.3905Z" fill="white"/>
<path d="M141.316 86.106H111.214V87.5605H141.316V86.106Z" fill="white"/>
<path d="M106.53 113.45H104.428V115.539H106.53V113.45Z" fill="white"/>
<path d="M97.1353 113.45H95.0327V115.539H97.1353V113.45Z" fill="white"/>
<path d="M106.53 110.409H104.428V112.498H106.53V110.409Z" fill="white"/>
<path d="M100.222 110.409H98.1196V112.498H100.222V110.409Z" fill="white"/>
<path d="M100.222 116.2H98.1196V118.29H100.222V116.2Z" fill="white"/>
<path d="M103.443 110.409H101.34V112.498H103.443V110.409Z" fill="white"/>
<path d="M103.443 116.2H101.34V118.29H103.443V116.2Z" fill="white"/>
<path d="M97.1353 110.409H95.0327V112.498H97.1353V110.409Z" fill="white"/>
<path d="M100.222 113.45H98.1196V115.381H100.222V113.45Z" fill="white"/>
<path d="M103.443 113.45H101.34V115.381H103.443V113.45Z" fill="white"/>
<path d="M96.9756 116.359H95.0327V118.29H96.9756V116.359Z" fill="white"/>
<path d="M106.53 116.359H104.587V118.29H106.53V116.359Z" fill="white"/>
</g>
<path d="M15.0938 207.516C15.0938 208.172 14.9531 208.87 14.6719 209.609C14.3906 210.339 13.9635 211.042 13.3906 211.719C12.8281 212.385 12.1146 212.932 11.25 213.359C10.3854 213.776 9.38542 213.984 8.25 213.984C7.125 213.984 6.00521 213.74 4.89062 213.25C3.78646 212.76 2.84896 212.031 2.07812 211.062C1.74479 211.833 1.53125 212.547 1.4375 213.203H0V205.953H1.4375C1.69792 206.995 2.05729 207.974 2.51562 208.891C2.97396 209.807 3.61979 210.599 4.45312 211.266C5.29688 211.922 6.32812 212.25 7.54688 212.25C8.60938 212.25 9.45833 211.958 10.0938 211.375C10.7396 210.792 11.0625 210.057 11.0625 209.172C11.0625 208.672 10.9635 208.234 10.7656 207.859C10.5677 207.484 10.2812 207.151 9.90625 206.859C9.53125 206.557 9.01562 206.24 8.35938 205.906C7.71354 205.562 6.97396 205.203 6.14062 204.828C4.85938 204.224 3.80729 203.615 2.98438 203C2.16146 202.385 1.53646 201.792 1.10938 201.219C0.692708 200.635 0.401042 200.083 0.234375 199.562C0.078125 199.042 0 198.516 0 197.984C0 197.036 0.255208 196.104 0.765625 195.188C1.27604 194.26 2.02083 193.505 3 192.922C3.98958 192.328 5.13021 192.031 6.42188 192.031C7.41146 192.031 8.35417 192.255 9.25 192.703C10.1458 193.141 10.9219 193.745 11.5781 194.516C11.7656 194.078 11.9375 193.464 12.0938 192.672H13.5625V198.578H12.0938C11.0521 195.359 9.23958 193.75 6.65625 193.75C5.71875 193.75 4.96354 194 4.39062 194.5C3.82812 194.99 3.54688 195.625 3.54688 196.406C3.54688 197.021 3.72396 197.557 4.07812 198.016C4.43229 198.464 4.89583 198.849 5.46875 199.172C6.05208 199.495 6.98958 199.958 8.28125 200.562C9.84375 201.302 11.0625 201.943 11.9375 202.484C12.8229 203.026 13.5677 203.708 14.1719 204.531C14.7865 205.354 15.0938 206.349 15.0938 207.516Z" fill="white"/>
<path d="M38.2188 213.594H28.2344V212.156C29.0781 212.156 29.6927 212.099 30.0781 211.984C30.4635 211.859 30.6562 211.573 30.6562 211.125C30.6562 210.812 30.5938 210.495 30.4688 210.172L29.4688 207.672H22.5938L22.0781 209.047C21.7865 209.818 21.6406 210.375 21.6406 210.719C21.6406 211.344 21.8802 211.74 22.3594 211.906C22.849 212.073 23.4167 212.156 24.0625 212.156V213.594H16.7656V212.156C17.349 212.156 17.8438 212.047 18.25 211.828C18.6562 211.609 19.0417 211.198 19.4062 210.594C19.7812 209.979 20.1823 209.115 20.6094 208L26.7188 192H28.2031L34.6562 208.5C35.125 209.667 35.4688 210.458 35.6875 210.875C35.9062 211.281 36.2083 211.599 36.5938 211.828C36.9792 212.047 37.5208 212.156 38.2188 212.156V213.594ZM28.9062 206.141L25.9844 198.75L23.2031 206.141H28.9062Z" fill="white"/>
<path d="M60.25 213.594H50.2656V212.156C51.1094 212.156 51.724 212.099 52.1094 211.984C52.4948 211.859 52.6875 211.573 52.6875 211.125C52.6875 210.812 52.625 210.495 52.5 210.172L51.5 207.672H44.625L44.1094 209.047C43.8177 209.818 43.6719 210.375 43.6719 210.719C43.6719 211.344 43.9115 211.74 44.3906 211.906C44.8802 212.073 45.4479 212.156 46.0938 212.156V213.594H38.7969V212.156C39.3802 212.156 39.875 212.047 40.2812 211.828C40.6875 211.609 41.0729 211.198 41.4375 210.594C41.8125 209.979 42.2135 209.115 42.6406 208L48.75 192H50.2344L56.6875 208.5C57.1562 209.667 57.5 210.458 57.7188 210.875C57.9375 211.281 58.2396 211.599 58.625 211.828C59.0104 212.047 59.5521 212.156 60.25 212.156V213.594ZM50.9375 206.141L48.0156 198.75L45.2344 206.141H50.9375Z" fill="white"/>
<path d="M84.2344 213.594H78.5625C78.3542 213.365 78.0938 213.031 77.7812 212.594C77.4792 212.156 77.1458 211.646 76.7812 211.062C76.4167 210.469 76.1146 209.979 75.875 209.594L74.4375 207.219C73.7917 206.156 73.3021 205.432 72.9688 205.047C72.6458 204.651 72.2708 204.401 71.8438 204.297C71.4271 204.182 70.7135 204.125 69.7031 204.125H68.9062V209.656C68.9062 210.24 68.9688 210.708 69.0938 211.062C69.2188 211.417 69.5104 211.688 69.9688 211.875C70.4375 212.062 71.1146 212.156 72 212.156V213.594H61.375V212.156C62.6667 212.156 63.4948 211.969 63.8594 211.594C64.2344 211.219 64.4219 210.573 64.4219 209.656V196.281C64.4219 195.375 64.2396 194.734 63.875 194.359C63.5208 193.974 62.6875 193.781 61.375 193.781V192.312L66.2812 192.156C66.6562 192.135 67.0833 192.12 67.5625 192.109C68.0521 192.099 68.5052 192.094 68.9219 192.094C69.2448 192.094 69.7812 192.104 70.5312 192.125C71.5833 192.156 72.5677 192.219 73.4844 192.312C74.401 192.406 75.125 192.526 75.6562 192.672C76.4375 192.87 77.1771 193.198 77.875 193.656C78.5833 194.115 79.1562 194.719 79.5938 195.469C80.0417 196.219 80.2656 197.089 80.2656 198.078C80.2656 198.786 80.1094 199.474 79.7969 200.141C79.4948 200.807 79 201.401 78.3125 201.922C77.6354 202.443 76.7396 202.854 75.625 203.156C76.3854 203.604 77.0312 204.161 77.5625 204.828C78.0938 205.484 78.9271 206.698 80.0625 208.469C80.7188 209.479 81.2604 210.245 81.6875 210.766C82.1146 211.276 82.5052 211.625 82.8594 211.812C83.224 211.99 83.6823 212.104 84.2344 212.156V213.594ZM75.4531 198.047C75.4531 196.359 74.9375 195.24 73.9062 194.688C72.8854 194.135 71.5469 193.859 69.8906 193.859C69.6615 193.859 69.4792 193.865 69.3438 193.875C69.2188 193.875 69.0729 193.875 68.9062 193.875V202.391H69.8906C71.4635 202.391 72.7812 202.135 73.8438 201.625C74.9167 201.115 75.4531 199.922 75.4531 198.047Z" fill="white"/>
<path d="M104.047 206.625L103.875 213.594H85V212.156C86.3021 212.156 87.1406 211.969 87.5156 211.594C87.8906 211.219 88.0781 210.573 88.0781 209.656V196.344C88.0781 195.74 88.0156 195.271 87.8906 194.938C87.776 194.594 87.4948 194.328 87.0469 194.141C86.6094 193.943 85.9271 193.844 85 193.844V192.406H102.578L102.859 197.906H101.422C101.099 196.688 100.724 195.818 100.297 195.297C99.8802 194.766 99.4062 194.443 98.875 194.328C98.3542 194.203 97.5677 194.141 96.5156 194.141H92.5469V201.625H94.7031C95.4427 201.625 95.9948 201.562 96.3594 201.438C96.724 201.302 96.9792 201.052 97.125 200.688C97.2708 200.323 97.3698 199.75 97.4219 198.969H98.9219V206.016H97.4844C97.4427 205.234 97.3385 204.661 97.1719 204.297C97.0052 203.922 96.7396 203.672 96.375 203.547C96.0208 203.422 95.474 203.359 94.7344 203.359H92.5469V208.344C92.5469 209.177 92.5677 209.786 92.6094 210.172C92.651 210.557 92.7604 210.88 92.9375 211.141C93.125 211.391 93.4219 211.573 93.8281 211.688C94.2448 211.802 94.8333 211.859 95.5938 211.859H97.2969C98.0156 211.859 98.6979 211.771 99.3438 211.594C100 211.406 100.641 210.938 101.266 210.188C101.891 209.427 102.328 208.24 102.578 206.625H104.047Z" fill="white"/>
<path d="M135.469 213.594H124.844V212.156C125.76 212.156 126.432 212.068 126.859 211.891C127.286 211.703 127.562 211.438 127.688 211.094C127.823 210.74 127.891 210.26 127.891 209.656V196.375L119.891 213.594H118.938L110.828 196.375V208.984C110.828 209.651 110.849 210.161 110.891 210.516C110.943 210.87 111.062 211.172 111.25 211.422C111.448 211.672 111.755 211.859 112.172 211.984C112.589 212.099 113.167 212.156 113.906 212.156V213.594H106.062V212.156C106.812 212.156 107.391 212.094 107.797 211.969C108.214 211.844 108.516 211.656 108.703 211.406C108.891 211.156 109.005 210.859 109.047 210.516C109.089 210.161 109.109 209.651 109.109 208.984V196.984C109.109 196.089 109.062 195.443 108.969 195.047C108.875 194.651 108.615 194.354 108.188 194.156C107.771 193.948 107.062 193.844 106.062 193.844V192.406H113.812L120.844 207.359L127.891 192.406H135.469V193.844C134.167 193.844 133.323 194.036 132.938 194.422C132.562 194.797 132.375 195.438 132.375 196.344V209.656C132.375 210.229 132.438 210.693 132.562 211.047C132.688 211.401 132.974 211.677 133.422 211.875C133.88 212.062 134.562 212.156 135.469 212.156V213.594Z" fill="white"/>
<path d="M158 213.594H148.016V212.156C148.859 212.156 149.474 212.099 149.859 211.984C150.245 211.859 150.438 211.573 150.438 211.125C150.438 210.812 150.375 210.495 150.25 210.172L149.25 207.672H142.375L141.859 209.047C141.568 209.818 141.422 210.375 141.422 210.719C141.422 211.344 141.661 211.74 142.141 211.906C142.63 212.073 143.198 212.156 143.844 212.156V213.594H136.547V212.156C137.13 212.156 137.625 212.047 138.031 211.828C138.438 211.609 138.823 211.198 139.188 210.594C139.562 209.979 139.964 209.115 140.391 208L146.5 192H147.984L154.438 208.5C154.906 209.667 155.25 210.458 155.469 210.875C155.688 211.281 155.99 211.599 156.375 211.828C156.76 212.047 157.302 212.156 158 212.156V213.594ZM148.688 206.141L145.766 198.75L142.984 206.141H148.688Z" fill="white"/>
<path d="M180.031 213.594H170.047V212.156C170.891 212.156 171.505 212.099 171.891 211.984C172.276 211.859 172.469 211.573 172.469 211.125C172.469 210.812 172.406 210.495 172.281 210.172L171.281 207.672H164.406L163.891 209.047C163.599 209.818 163.453 210.375 163.453 210.719C163.453 211.344 163.693 211.74 164.172 211.906C164.661 212.073 165.229 212.156 165.875 212.156V213.594H158.578V212.156C159.161 212.156 159.656 212.047 160.062 211.828C160.469 211.609 160.854 211.198 161.219 210.594C161.594 209.979 161.995 209.115 162.422 208L168.531 192H170.016L176.469 208.5C176.938 209.667 177.281 210.458 177.5 210.875C177.719 211.281 178.021 211.599 178.406 211.828C178.792 212.047 179.333 212.156 180.031 212.156V213.594ZM170.719 206.141L167.797 198.75L165.016 206.141H170.719Z" fill="white"/>
<path d="M32.7656 250.594H22.1406V249.156C23.0573 249.156 23.7292 249.068 24.1562 248.891C24.5833 248.703 24.8594 248.438 24.9844 248.094C25.1198 247.74 25.1875 247.26 25.1875 246.656V233.375L17.1875 250.594H16.2344L8.125 233.375V245.984C8.125 246.651 8.14583 247.161 8.1875 247.516C8.23958 247.87 8.35938 248.172 8.54688 248.422C8.74479 248.672 9.05208 248.859 9.46875 248.984C9.88542 249.099 10.4635 249.156 11.2031 249.156V250.594H3.35938V249.156C4.10938 249.156 4.6875 249.094 5.09375 248.969C5.51042 248.844 5.8125 248.656 6 248.406C6.1875 248.156 6.30208 247.859 6.34375 247.516C6.38542 247.161 6.40625 246.651 6.40625 245.984V233.984C6.40625 233.089 6.35938 232.443 6.26562 232.047C6.17188 231.651 5.91146 231.354 5.48438 231.156C5.06771 230.948 4.35938 230.844 3.35938 230.844V229.406H11.1094L18.1406 244.359L25.1875 229.406H32.7656V230.844C31.4635 230.844 30.6198 231.036 30.2344 231.422C29.8594 231.797 29.6719 232.438 29.6719 233.344V246.656C29.6719 247.229 29.7344 247.693 29.8594 248.047C29.9844 248.401 30.2708 248.677 30.7188 248.875C31.1771 249.062 31.8594 249.156 32.7656 249.156V250.594Z" fill="white"/>
<path d="M57.0469 230.844C56.099 230.844 55.4167 230.953 55 231.172C54.5938 231.391 54.3438 231.703 54.25 232.109C54.1562 232.516 54.1094 233.141 54.1094 233.984V241.797C54.1094 243.234 54.0573 244.318 53.9531 245.047C53.8594 245.766 53.599 246.495 53.1719 247.234C52.3802 248.661 51.2708 249.646 49.8438 250.188C48.4271 250.719 47.0625 250.984 45.75 250.984C44.7812 250.984 43.7812 250.854 42.75 250.594C41.7292 250.344 40.776 249.927 39.8906 249.344C39.0052 248.76 38.3333 247.995 37.875 247.047C37.625 246.526 37.4323 246.005 37.2969 245.484C37.1615 244.953 37.0781 244.458 37.0469 244C37.026 243.531 37.0156 242.922 37.0156 242.172L36.9844 233.344C36.9844 232.427 36.8021 231.781 36.4375 231.406C36.0833 231.031 35.2448 230.844 33.9219 230.844V229.406H44.6094V230.844C43.7031 230.844 43.026 230.938 42.5781 231.125C42.1302 231.302 41.8385 231.562 41.7031 231.906C41.5677 232.24 41.5 232.719 41.5 233.344V242.172C41.5 243.078 41.5417 243.875 41.625 244.562C41.7188 245.24 41.8594 245.833 42.0469 246.344C42.401 247.188 43 247.865 43.8438 248.375C44.6979 248.875 45.6354 249.125 46.6562 249.125C47.75 249.125 48.7656 248.859 49.7031 248.328C50.651 247.786 51.3073 247.089 51.6719 246.234C51.9635 245.568 52.151 244.88 52.2344 244.172C52.3281 243.453 52.375 242.599 52.375 241.609V233.984C52.375 233.297 52.3542 232.786 52.3125 232.453C52.2708 232.12 52.1562 231.828 51.9688 231.578C51.7812 231.318 51.4688 231.13 51.0312 231.016C50.6042 230.901 50.0104 230.844 49.25 230.844V229.406H57.0469V230.844Z" fill="white"/>
<path d="M81.0469 230.844C80.099 230.844 79.4167 230.953 79 231.172C78.5938 231.391 78.3438 231.703 78.25 232.109C78.1562 232.516 78.1094 233.141 78.1094 233.984V241.797C78.1094 243.234 78.0573 244.318 77.9531 245.047C77.8594 245.766 77.599 246.495 77.1719 247.234C76.3802 248.661 75.2708 249.646 73.8438 250.188C72.4271 250.719 71.0625 250.984 69.75 250.984C68.7812 250.984 67.7812 250.854 66.75 250.594C65.7292 250.344 64.776 249.927 63.8906 249.344C63.0052 248.76 62.3333 247.995 61.875 247.047C61.625 246.526 61.4323 246.005 61.2969 245.484C61.1615 244.953 61.0781 244.458 61.0469 244C61.026 243.531 61.0156 242.922 61.0156 242.172L60.9844 233.344C60.9844 232.427 60.8021 231.781 60.4375 231.406C60.0833 231.031 59.2448 230.844 57.9219 230.844V229.406H68.6094V230.844C67.7031 230.844 67.026 230.938 66.5781 231.125C66.1302 231.302 65.8385 231.562 65.7031 231.906C65.5677 232.24 65.5 232.719 65.5 233.344V242.172C65.5 243.078 65.5417 243.875 65.625 244.562C65.7188 245.24 65.8594 245.833 66.0469 246.344C66.401 247.188 67 247.865 67.8438 248.375C68.6979 248.875 69.6354 249.125 70.6562 249.125C71.75 249.125 72.7656 248.859 73.7031 248.328C74.651 247.786 75.3073 247.089 75.6719 246.234C75.9635 245.568 76.151 244.88 76.2344 244.172C76.3281 243.453 76.375 242.599 76.375 241.609V233.984C76.375 233.297 76.3542 232.786 76.3125 232.453C76.2708 232.12 76.1562 231.828 75.9688 231.578C75.7812 231.318 75.4688 231.13 75.0312 231.016C74.6042 230.901 74.0104 230.844 73.25 230.844V229.406H81.0469V230.844Z" fill="white"/>
<path d="M98.5156 244.516C98.5156 245.172 98.375 245.87 98.0938 246.609C97.8125 247.339 97.3854 248.042 96.8125 248.719C96.25 249.385 95.5365 249.932 94.6719 250.359C93.8073 250.776 92.8073 250.984 91.6719 250.984C90.5469 250.984 89.4271 250.74 88.3125 250.25C87.2083 249.76 86.2708 249.031 85.5 248.062C85.1667 248.833 84.9531 249.547 84.8594 250.203H83.4219V242.953H84.8594C85.1198 243.995 85.4792 244.974 85.9375 245.891C86.3958 246.807 87.0417 247.599 87.875 248.266C88.7188 248.922 89.75 249.25 90.9688 249.25C92.0312 249.25 92.8802 248.958 93.5156 248.375C94.1615 247.792 94.4844 247.057 94.4844 246.172C94.4844 245.672 94.3854 245.234 94.1875 244.859C93.9896 244.484 93.7031 244.151 93.3281 243.859C92.9531 243.557 92.4375 243.24 91.7812 242.906C91.1354 242.562 90.3958 242.203 89.5625 241.828C88.2812 241.224 87.2292 240.615 86.4062 240C85.5833 239.385 84.9583 238.792 84.5312 238.219C84.1146 237.635 83.8229 237.083 83.6562 236.562C83.5 236.042 83.4219 235.516 83.4219 234.984C83.4219 234.036 83.6771 233.104 84.1875 232.188C84.6979 231.26 85.4427 230.505 86.4219 229.922C87.4115 229.328 88.5521 229.031 89.8438 229.031C90.8333 229.031 91.776 229.255 92.6719 229.703C93.5677 230.141 94.3438 230.745 95 231.516C95.1875 231.078 95.3594 230.464 95.5156 229.672H96.9844V235.578H95.5156C94.474 232.359 92.6615 230.75 90.0781 230.75C89.1406 230.75 88.3854 231 87.8125 231.5C87.25 231.99 86.9688 232.625 86.9688 233.406C86.9688 234.021 87.1458 234.557 87.5 235.016C87.8542 235.464 88.3177 235.849 88.8906 236.172C89.474 236.495 90.4115 236.958 91.7031 237.562C93.2656 238.302 94.4844 238.943 95.3594 239.484C96.2448 240.026 96.9896 240.708 97.5938 241.531C98.2083 242.354 98.5156 243.349 98.5156 244.516Z" fill="white"/>
<path d="M119.719 243.625L119.547 250.594H100.672V249.156C101.974 249.156 102.812 248.969 103.188 248.594C103.562 248.219 103.75 247.573 103.75 246.656V233.344C103.75 232.74 103.688 232.271 103.562 231.938C103.448 231.594 103.167 231.328 102.719 231.141C102.281 230.943 101.599 230.844 100.672 230.844V229.406H118.25L118.531 234.906H117.094C116.771 233.688 116.396 232.818 115.969 232.297C115.552 231.766 115.078 231.443 114.547 231.328C114.026 231.203 113.24 231.141 112.188 231.141H108.219V238.625H110.375C111.115 238.625 111.667 238.562 112.031 238.438C112.396 238.302 112.651 238.052 112.797 237.688C112.943 237.323 113.042 236.75 113.094 235.969H114.594V243.016H113.156C113.115 242.234 113.01 241.661 112.844 241.297C112.677 240.922 112.411 240.672 112.047 240.547C111.693 240.422 111.146 240.359 110.406 240.359H108.219V245.344C108.219 246.177 108.24 246.786 108.281 247.172C108.323 247.557 108.432 247.88 108.609 248.141C108.797 248.391 109.094 248.573 109.5 248.688C109.917 248.802 110.505 248.859 111.266 248.859H112.969C113.688 248.859 114.37 248.771 115.016 248.594C115.672 248.406 116.312 247.938 116.938 247.188C117.562 246.427 118 245.24 118.25 243.625H119.719Z" fill="white"/>
<path d="M144.391 230.844C143.443 230.844 142.76 230.953 142.344 231.172C141.938 231.391 141.688 231.703 141.594 232.109C141.5 232.516 141.453 233.141 141.453 233.984V241.797C141.453 243.234 141.401 244.318 141.297 245.047C141.203 245.766 140.943 246.495 140.516 247.234C139.724 248.661 138.615 249.646 137.188 250.188C135.771 250.719 134.406 250.984 133.094 250.984C132.125 250.984 131.125 250.854 130.094 250.594C129.073 250.344 128.12 249.927 127.234 249.344C126.349 248.76 125.677 247.995 125.219 247.047C124.969 246.526 124.776 246.005 124.641 245.484C124.505 244.953 124.422 244.458 124.391 244C124.37 243.531 124.359 242.922 124.359 242.172L124.328 233.344C124.328 232.427 124.146 231.781 123.781 231.406C123.427 231.031 122.589 230.844 121.266 230.844V229.406H131.953V230.844C131.047 230.844 130.37 230.938 129.922 231.125C129.474 231.302 129.182 231.562 129.047 231.906C128.911 232.24 128.844 232.719 128.844 233.344V242.172C128.844 243.078 128.885 243.875 128.969 244.562C129.062 245.24 129.203 245.833 129.391 246.344C129.745 247.188 130.344 247.865 131.188 248.375C132.042 248.875 132.979 249.125 134 249.125C135.094 249.125 136.109 248.859 137.047 248.328C137.995 247.786 138.651 247.089 139.016 246.234C139.307 245.568 139.495 244.88 139.578 244.172C139.672 243.453 139.719 242.599 139.719 241.609V233.984C139.719 233.297 139.698 232.786 139.656 232.453C139.615 232.12 139.5 231.828 139.312 231.578C139.125 231.318 138.812 231.13 138.375 231.016C137.948 230.901 137.354 230.844 136.594 230.844V229.406H144.391V230.844Z" fill="white"/>
<path d="M175.141 250.594H164.516V249.156C165.432 249.156 166.104 249.068 166.531 248.891C166.958 248.703 167.234 248.438 167.359 248.094C167.495 247.74 167.562 247.26 167.562 246.656V233.375L159.562 250.594H158.609L150.5 233.375V245.984C150.5 246.651 150.521 247.161 150.562 247.516C150.615 247.87 150.734 248.172 150.922 248.422C151.12 248.672 151.427 248.859 151.844 248.984C152.26 249.099 152.839 249.156 153.578 249.156V250.594H145.734V249.156C146.484 249.156 147.062 249.094 147.469 248.969C147.885 248.844 148.188 248.656 148.375 248.406C148.562 248.156 148.677 247.859 148.719 247.516C148.76 247.161 148.781 246.651 148.781 245.984V233.984C148.781 233.089 148.734 232.443 148.641 232.047C148.547 231.651 148.286 231.354 147.859 231.156C147.443 230.948 146.734 230.844 145.734 230.844V229.406H153.484L160.516 244.359L167.562 229.406H175.141V230.844C173.839 230.844 172.995 231.036 172.609 231.422C172.234 231.797 172.047 232.438 172.047 233.344V246.656C172.047 247.229 172.109 247.693 172.234 248.047C172.359 248.401 172.646 248.677 173.094 248.875C173.552 249.062 174.234 249.156 175.141 249.156V250.594Z" fill="white"/>
<path d="M71.668 264.855H72.1836V277.301C72.1836 278.324 72.1953 278.969 72.2188 279.234C72.25 279.5 72.3633 279.703 72.5586 279.844C72.7539 279.984 73.1016 280.055 73.6016 280.055H74.0586V280.594H68.7852V280.055H69.1719C69.7344 280.055 70.0977 279.977 70.2617 279.82C70.4336 279.656 70.5312 279.465 70.5547 279.246C70.5859 279.02 70.6016 278.371 70.6016 277.301V268.957C70.6016 267.902 70.5898 267.266 70.5664 267.047C70.543 266.82 70.4414 266.625 70.2617 266.461C70.0898 266.289 69.7266 266.203 69.1719 266.203H68.668V265.664C70.0195 265.641 71.0195 265.371 71.668 264.855Z" fill="white"/>
<path d="M84.2422 272.602C85.2734 272.688 86.1836 273.102 86.9727 273.844C87.7617 274.578 88.1562 275.527 88.1562 276.691C88.1562 278.035 87.6758 279.086 86.7148 279.844C85.7539 280.602 84.5859 280.98 83.2109 280.98C81.8047 280.98 80.6328 280.578 79.6953 279.773C78.7578 278.961 78.2891 277.949 78.2891 276.738C78.2891 275.691 78.625 274.797 79.2969 274.055C79.9688 273.312 80.8984 272.828 82.0859 272.602C81.125 272.359 80.3359 271.891 79.7188 271.195C79.1094 270.5 78.8047 269.684 78.8047 268.746C78.8047 267.598 79.2227 266.664 80.0586 265.945C80.8945 265.219 81.9453 264.855 83.2109 264.855C84.3828 264.855 85.418 265.211 86.3164 265.922C87.2227 266.625 87.6758 267.566 87.6758 268.746C87.6758 269.684 87.3867 270.492 86.8086 271.172C86.2383 271.852 85.3828 272.328 84.2422 272.602ZM80.6445 268.512C80.6445 269.785 80.8477 270.742 81.2539 271.383C81.668 272.016 82.2852 272.332 83.1055 272.332C84.0039 272.332 84.6758 272.031 85.1211 271.43C85.5664 270.82 85.7891 269.914 85.7891 268.711C85.7891 267.617 85.5547 266.785 85.0859 266.215C84.625 265.645 83.9844 265.359 83.1641 265.359C82.4375 265.359 81.8359 265.621 81.3594 266.145C80.8828 266.66 80.6445 267.449 80.6445 268.512ZM80.2344 276.586C80.2344 277.469 80.3164 278.168 80.4805 278.684C80.6445 279.191 80.957 279.613 81.418 279.949C81.8867 280.285 82.4648 280.453 83.1523 280.453C84.0273 280.453 84.7539 280.203 85.332 279.703C85.9102 279.203 86.1992 278.211 86.1992 276.727C86.1992 275.234 85.9102 274.223 85.332 273.691C84.7539 273.16 84.0117 272.895 83.1055 272.895C82.1445 272.895 81.4258 273.227 80.9492 273.891C80.4727 274.547 80.2344 275.445 80.2344 276.586Z" fill="white"/>
<path d="M92.4102 272.648C92.8945 272.07 93.4023 271.637 93.9336 271.348C94.4727 271.059 95.0352 270.914 95.6211 270.914C96.8867 270.914 97.9805 271.391 98.9023 272.344C99.8242 273.297 100.285 274.492 100.285 275.93C100.285 277.281 99.8398 278.461 98.9492 279.469C98.0586 280.477 96.9219 280.98 95.5391 280.98C94.3672 280.98 93.3789 280.609 92.5742 279.867C91.7695 279.125 91.2031 278.199 90.875 277.09C90.5547 275.973 90.3945 274.812 90.3945 273.609C90.3945 271.125 90.9375 269.047 92.0234 267.375C93.1172 265.695 94.5781 264.855 96.4062 264.855C97.2656 264.855 98.0234 265.043 98.6797 265.418C99.3359 265.785 99.6641 266.203 99.6641 266.672C99.6641 267.109 99.4414 267.328 98.9961 267.328C98.6133 267.328 98.3086 267.113 98.082 266.684C97.8477 266.238 97.5938 265.918 97.3203 265.723C97.0469 265.535 96.6367 265.441 96.0898 265.441C94.8555 265.441 93.9297 265.988 93.3125 267.082C92.6953 268.176 92.3867 269.82 92.3867 272.016C92.3867 272.211 92.3945 272.422 92.4102 272.648ZM92.3398 275.766C92.3398 276.523 92.4453 277.277 92.6562 278.027C92.875 278.77 93.2344 279.355 93.7344 279.785C94.2344 280.215 94.793 280.43 95.4102 280.43C96.3867 280.43 97.1172 280.039 97.6016 279.258C98.0859 278.477 98.3281 277.309 98.3281 275.754C98.3281 274.77 98.2344 274.004 98.0469 273.457C97.8672 272.902 97.5312 272.441 97.0391 272.074C96.5547 271.707 96.0117 271.523 95.4102 271.523C94.5977 271.523 93.8828 271.832 93.2656 272.449C92.6484 273.059 92.3398 274.164 92.3398 275.766Z" fill="white"/>
<path d="M104.387 272.531H103.777L104.129 265.242H110.211C109.875 266.031 109.629 266.488 109.473 266.613C109.324 266.738 109.062 266.801 108.688 266.801H104.574L104.387 271.652C105.176 270.645 106.145 270.141 107.293 270.141C108.512 270.141 109.551 270.629 110.41 271.605C111.277 272.582 111.711 273.793 111.711 275.238C111.711 276.902 111.223 278.277 110.246 279.363C109.277 280.441 107.918 280.98 106.168 280.98C104.949 280.98 104 280.699 103.32 280.137C102.641 279.566 102.301 279.051 102.301 278.59C102.301 278.387 102.367 278.211 102.5 278.062C102.641 277.914 102.828 277.84 103.062 277.84C103.32 277.84 103.516 277.918 103.648 278.074C103.781 278.223 103.938 278.535 104.117 279.012C104.469 279.98 105.168 280.465 106.215 280.465C107.215 280.465 108.055 280.062 108.734 279.258C109.422 278.453 109.766 277.145 109.766 275.332C109.766 273.699 109.484 272.539 108.922 271.852C108.359 271.164 107.695 270.82 106.93 270.82C105.852 270.82 105.004 271.391 104.387 272.531Z" fill="white"/>
<defs>
<clipPath id="clip0">
<rect width="171" height="172" fill="white" transform="translate(4.51562)"/>
</clipPath>
</defs>
</svg>
